<svg width="50" height="50" viewBox="0 0 50 50" fill="none" xmlns="http://www.w3.org/2000/svg">
<path d="M25 50C38.8071 50 50 38.8071 50 25C50 11.1929 38.8071 0 25 0C11.1929 0 0 11.1929 0 25C0 38.8071 11.1929 50 25 50Z" fill="#536779"/>
<path d="M39.1797 35.3125L28.8672 25L39.1406 14.6875C39.2969 14.5312 39.2969 14.2969 39.1406 14.1406L35.8203 10.8203C35.6641 10.6641 35.4297 10.6641 35.2734 10.8203L25 21.1328L14.7266 10.8594C14.5703 10.7031 14.3359 10.7031 14.1797 10.8594L10.8594 14.1797C10.7031 14.3359 10.7031 14.5703 10.8594 14.7266L21.0938 25L10.8203 35.2734C10.6641 35.4297 10.6641 35.6641 10.8203 35.8203L14.1406 39.1406C14.2969 39.2969 14.5703 39.2969 14.6875 39.1406L25 28.8672L35.2734 39.1406C35.4297 39.2969 35.7031 39.2969 35.8594 39.1797L39.1797 35.8594C39.3359 35.7031 39.3359 35.4688 39.1797 35.3125Z" fill="white"/>
</svg>
