<svg width="277" height="93" viewBox="0 0 277 93" fill="none" xmlns="http://www.w3.org/2000/svg">
<path fill-rule="evenodd" clip-rule="evenodd" d="M105.326 0.134369C105.326 0.235809 105.943 1.04607 106.698 1.93461C111.834 7.98372 113.317 12.2138 112.772 19.2657C112.051 28.6094 113.179 34.2024 116.393 37.2089C119.122 39.7615 120.332 41.5768 120.534 43.4205L120.693 44.877L119.835 42.842C116.678 35.3564 105.489 30.4065 85.9016 27.8295C76.8653 26.6408 60.5733 25.4789 62.4334 26.1558C65.8613 27.4031 74.6919 32.5286 83.5666 38.4221C86.8383 40.5946 89.6561 42.429 89.8283 42.4985C90.0005 42.568 91.0271 43.2411 92.1094 43.9944C100.607 49.9089 106.979 52.4446 108.699 50.5952C110.823 48.3116 108.255 44.5592 101.443 39.9957C97.7994 37.5546 97.822 37.3232 101.518 39.2318C119.764 48.6556 109.131 68.4467 78.9608 81.2168C75.9996 82.4704 76.5538 82.5239 80.3334 81.3498C87.7046 79.0596 94.4306 75.8865 100.31 71.925C104.91 68.8252 104.731 68.6602 103.493 74.863C102.17 81.4882 100.587 94.0057 101.207 92.9355C101.356 92.6773 101.721 91.1979 102.016 89.6482C103.31 82.863 106.251 72.2923 107.591 69.6107C108.735 67.3208 108.895 67.2335 111.561 67.4457C117.783 67.9414 124.748 64.4292 126.467 59.9289C127.192 58.0291 126.875 57.7636 126.011 59.5479C123.629 64.4689 117.188 67.3258 111.397 66.03C109.48 65.601 109.539 65.4915 110.224 64.1577C115.898 53.1155 127.732 46.7214 133.108 51.7934C135.056 53.6309 137.23 54.1706 135.904 52.4321C135.455 51.8425 134.993 50.7471 134.878 49.9972C134.405 46.9146 132.782 45.4785 128.772 44.5968L127.955 44.4171L128.101 41.3063C128.66 29.461 124.83 17.9386 117.686 9.96805C113.993 5.84754 105.326 -1.04784 105.326 0.134369ZM101.882 13.2507C95.1238 14.5992 89.3812 17.7185 84.3493 22.7738L81.6881 25.4473L82.7526 25.5581C83.7006 25.6567 84.0425 25.4488 85.8834 23.6521C92.0553 17.628 100.112 14.3512 108.752 14.3512C111.243 14.3512 111.457 14.2529 111.085 13.2811C110.843 12.6506 104.986 12.6315 101.882 13.2507ZM125.345 18.3853C125.687 19.0544 126.57 20.0431 127.308 20.5823C136.521 27.3086 142.248 41.0311 140.106 51.2477C136.662 67.6709 124.25 78.5336 108.928 78.5336C106.393 78.5336 106.335 78.5509 106.184 79.3411C105.72 81.7675 117.129 80.0208 123.798 76.6445C146.457 65.1731 148.385 32.1116 127.194 18.4151C124.797 16.8653 124.568 16.8619 125.345 18.3853ZM76.1099 36.1889C74.6546 38.6986 74.1283 49.9953 75.2821 53.9565C77.5419 61.7157 80.0425 66.0735 84.9501 70.8045C88.3358 74.0684 88.6805 74.2719 89.6198 73.5634L90.3302 73.0274L88.9041 72.0033C78.8534 64.7855 73.4104 48.3307 77.5084 37.5527C77.8775 36.5812 76.603 35.3383 76.1099 36.1889ZM95.4986 76.8561C94.3752 77.4657 94.5916 77.6307 97.9065 78.6914C100.937 79.6611 100.943 79.6608 100.942 78.6119C100.942 77.8333 100.769 77.6999 99.1294 77.2184C98.1326 76.9253 97.1113 76.6138 96.8599 76.5255C96.6088 76.4375 95.9961 76.5863 95.4986 76.8561Z" fill="#264158"/>
<path d="M127.739 50.541C123.825 50.8541 122.379 55.165 125.831 56.304C127.409 56.8246 129.803 56.0479 131.723 54.3917L133.229 53.0921L132.39 52.2164C130.977 50.8014 128.7 50.5099 127.739 50.541Z" fill="#264158"/>
<path d="M10.4728 60.4032C8.44578 60.4032 6.64402 59.9575 5.06747 59.0661C3.50344 58.1748 2.26472 56.9104 1.35133 55.273C0.450442 53.6259 0 51.6785 0 49.4307C0 47.1732 0.462954 45.2306 1.38886 43.6029C2.32728 41.9655 3.60353 40.706 5.21762 39.8243C6.84421 38.9329 8.68977 38.4872 10.7543 38.4872C12.3809 38.4872 13.751 38.7149 14.8646 39.1703C15.9907 39.6257 16.8978 40.2118 17.586 40.9288C18.2742 41.6458 18.7684 42.416 19.0687 43.2396C19.3815 44.0534 19.5379 44.8334 19.5379 45.5794C19.5379 45.6085 19.5379 45.6375 19.5379 45.6666C19.5379 45.6957 19.5379 45.7247 19.5379 45.7538H18.1303C18.1303 45.7247 18.1303 45.6957 18.1303 45.6666C18.1303 45.6375 18.1303 45.6085 18.1303 45.5794C18.1303 44.9012 17.9926 44.2133 17.7174 43.5157C17.4546 42.8084 17.0292 42.1544 16.4411 41.5537C15.8656 40.9433 15.1086 40.4541 14.1701 40.0859C13.2317 39.7177 12.0931 39.5336 10.7543 39.5336C8.96504 39.5336 7.36973 39.9309 5.96835 40.7253C4.57949 41.5198 3.47841 42.6582 2.66511 44.1406C1.86433 45.623 1.46394 47.3864 1.46394 49.4307C1.46394 50.9712 1.6829 52.3567 2.12083 53.5872C2.57127 54.8079 3.19689 55.8543 3.99767 56.7263C4.81097 57.5886 5.7619 58.2474 6.85047 58.7028C7.95155 59.1582 9.16524 59.3859 10.4915 59.3859C12.1432 59.3859 13.5007 59.1872 14.5643 58.79C15.6278 58.3831 16.4411 57.8986 17.0042 57.3367C17.5797 56.7651 17.9551 56.2273 18.1303 55.7235V51.4072H10.4915V50.4335H19.4816L18.8935 60.1416L18.2241 57.4384C18.124 57.671 17.8925 57.9568 17.5297 58.2959C17.1668 58.6253 16.6663 58.9547 16.0282 59.2841C15.3901 59.6039 14.6081 59.8703 13.6822 60.0835C12.7688 60.2966 11.699 60.4032 10.4728 60.4032Z" fill="#264158"/>
<path d="M35.2368 60.4032C33.6978 60.4032 32.2839 60.1561 30.9951 59.662C29.7064 59.1582 28.5865 58.4315 27.6356 57.482C26.6972 56.5228 25.9652 55.365 25.4397 54.0086C24.9267 52.6522 24.6702 51.1165 24.6702 49.4016C24.6702 47.6867 24.9329 46.1559 25.4585 44.8092C25.984 43.4527 26.7222 42.3095 27.6731 41.3793C28.6241 40.4395 29.7377 39.7226 31.0139 39.2284C32.3027 38.7343 33.7103 38.4872 35.2368 38.4872C36.7633 38.4872 38.1709 38.7343 39.4597 39.2284C40.7485 39.7226 41.8683 40.4395 42.8192 41.3793C43.7702 42.3095 44.5021 43.4527 45.0151 44.8092C45.5407 46.1559 45.8034 47.6867 45.8034 49.4016C45.8034 51.1165 45.5407 52.6522 45.0151 54.0086C44.5021 55.365 43.7702 56.5228 42.8192 57.482C41.8808 58.4315 40.7672 59.1582 39.4785 59.662C38.1897 60.1561 36.7758 60.4032 35.2368 60.4032ZM35.2368 59.3859C37.0135 59.3859 38.5838 58.9886 39.9477 58.1942C41.324 57.39 42.3938 56.2419 43.1571 54.7498C43.9328 53.248 44.3207 51.4653 44.3207 49.4016C44.3207 47.3282 43.9266 45.5552 43.1383 44.0825C42.3625 42.6001 41.2927 41.4714 39.9289 40.6963C38.5651 39.9115 37.001 39.5191 35.2368 39.5191C33.4851 39.5191 31.921 39.9115 30.5447 40.6963C29.1809 41.4714 28.1048 42.6001 27.3165 44.0825C26.5408 45.5552 26.1529 47.3282 26.1529 49.4016C26.1529 51.475 26.5408 53.2577 27.3165 54.7498C28.1048 56.2419 29.1809 57.39 30.5447 58.1942C31.921 58.9886 33.4851 59.3859 35.2368 59.3859Z" fill="#264158"/>
<path d="M50.9404 60.1416V38.7052H59.48C61.7823 38.7052 63.559 39.1412 64.8102 40.0132C66.0615 40.8755 66.6871 42.261 66.6871 44.1697C66.6871 45.3323 66.3993 46.3206 65.8237 47.1344C65.2607 47.9483 64.5913 48.5781 63.8155 49.0238C63.0397 49.4597 62.3453 49.7117 61.7322 49.7795C62.3453 49.8182 62.9709 49.9587 63.6091 50.2009C64.2597 50.4335 64.804 50.7968 65.2419 51.2909C65.6798 51.7754 65.8988 52.4293 65.8988 53.2529C65.8988 54.1249 65.8988 55.0308 65.8988 55.9706C65.8988 56.9007 65.8988 57.8018 65.8988 58.6737C65.8988 59.0516 65.9426 59.3762 66.0302 59.6475C66.1178 59.9091 66.1928 60.0738 66.2554 60.1416H64.7727C64.7226 60.0641 64.6538 59.8994 64.5662 59.6475C64.4912 59.3859 64.4536 59.0613 64.4536 58.6737C64.4536 57.8308 64.4536 56.954 64.4536 56.0433C64.4536 55.1325 64.4536 54.2557 64.4536 53.4128C64.4536 52.3276 63.9969 51.538 63.0835 51.0439C62.1701 50.5497 60.9502 50.3027 59.4237 50.3027H51.8788L52.348 49.8521V60.1416H50.9404ZM52.348 49.794L51.8788 49.3144H59.4237C60.4622 49.3144 61.4194 49.1061 62.2953 48.6895C63.1711 48.2729 63.8718 47.6867 64.3973 46.931C64.9354 46.1753 65.2044 45.2742 65.2044 44.2278C65.2044 42.6195 64.6851 41.4665 63.6466 40.7689C62.6206 40.0617 61.1191 39.708 59.1422 39.708H51.86L52.348 39.2139V49.794Z" fill="#264158"/>
<path d="M157.795 60.4032C155.942 60.4032 154.389 60.1755 153.136 59.7201C151.884 59.2648 150.938 58.5769 150.3 57.6564C149.661 56.7263 149.342 55.5685 149.342 54.183C149.342 53.9602 149.342 53.7809 149.342 53.6453C149.342 53.5 149.342 53.3159 149.342 53.093H150.807C150.807 53.3159 150.807 53.4951 150.807 53.6308C150.807 53.7664 150.807 53.9456 150.807 54.1685C150.807 55.9706 151.402 57.2931 152.591 58.136C153.781 58.9693 155.491 59.3859 157.72 59.3859C160.062 59.3859 161.815 59.0177 162.98 58.2814C164.157 57.5353 164.745 56.455 164.745 55.0405C164.745 54.0522 164.451 53.2432 163.863 52.6134C163.286 51.974 162.472 51.4363 161.42 51.0003C160.381 50.5643 159.147 50.1622 157.72 49.794C156.092 49.3774 154.664 48.9026 153.437 48.3698C152.21 47.8272 151.258 47.1732 150.581 46.4078C149.905 45.6327 149.567 44.6687 149.567 43.5157C149.567 42.4209 149.886 41.5004 150.525 40.7544C151.176 40.0084 152.097 39.4464 153.287 39.0686C154.489 38.681 155.916 38.4872 157.57 38.4872C159.335 38.4872 160.844 38.7004 162.097 39.1267C163.349 39.5433 164.307 40.1876 164.971 41.0596C165.647 41.9219 165.985 43.0216 165.985 44.3586C165.985 44.6105 165.985 44.8188 165.985 44.9835C165.985 45.1386 165.985 45.342 165.985 45.5939H164.52C164.52 45.3517 164.52 45.1531 164.52 44.9981C164.52 44.8334 164.52 44.6299 164.52 44.3877C164.52 42.6631 163.913 41.4181 162.698 40.6527C161.496 39.8873 159.799 39.5046 157.607 39.5046C155.516 39.5046 153.894 39.8388 152.742 40.5073C151.59 41.1759 151.014 42.1787 151.014 43.5157C151.014 44.5136 151.333 45.342 151.972 46.0009C152.623 46.65 153.512 47.1974 154.639 47.6431C155.766 48.0791 157.05 48.486 158.49 48.8639C160.118 49.2805 161.502 49.7456 162.642 50.2591C163.794 50.7726 164.67 51.4023 165.271 52.1484C165.885 52.8944 166.192 53.8439 166.192 54.9969C166.192 56.1304 165.866 57.0993 165.215 57.9035C164.576 58.7077 163.631 59.3277 162.379 59.7637C161.139 60.19 159.611 60.4032 157.795 60.4032Z" fill="#264158"/>
<path d="M188.193 38.7052V60.1416H186.746V49.4307L187.404 49.9684H172.132L172.789 49.4307V60.1416H171.343V38.7052H172.789V49.5324L172.132 48.9656H187.404L186.746 49.5324V38.7052H188.193Z" fill="#264158"/>
<path d="M195.136 39.708L195.793 39.0976V49.3144L195.343 48.893H207.008V49.8812H195.343L195.793 49.4597V59.7492L195.136 59.1388H208.342V60.1416H194.347V38.7052H208.342V39.708H195.136Z" fill="#264158"/>
<path d="M215.898 60.1416H214.49V38.7052H216.838L230.983 59.4731L230.833 59.5457V38.7052H232.241V60.1416H229.837L215.748 39.3883L215.898 39.3447V60.1416Z" fill="#264158"/>
<path d="M243.032 48.9802V48.0936L254.116 60.1416H252.444L242.112 49.0092L242.882 49.0819L239.632 52.2792L239.858 51.4944V60.1416H238.411V38.7052H239.858V50.9276L239.557 50.7387L251.636 38.7052H253.27L243.032 48.9802Z" fill="#264158"/>
<path d="M265.804 60.4032C264.264 60.4032 262.848 60.1561 261.559 59.662C260.269 59.1582 259.148 58.4315 258.196 57.482C257.257 56.5228 256.524 55.365 255.998 54.0086C255.485 52.6522 255.228 51.1165 255.228 49.4016C255.228 47.6867 255.491 46.1559 256.017 44.8092C256.543 43.4527 257.282 42.3095 258.234 41.3793C259.185 40.4395 260.3 39.7226 261.577 39.2284C262.867 38.7343 264.276 38.4872 265.804 38.4872C267.332 38.4872 268.741 38.7343 270.031 39.2284C271.321 39.7226 272.441 40.4395 273.393 41.3793C274.345 42.3095 275.078 43.4527 275.591 44.8092C276.117 46.1559 276.38 47.6867 276.38 49.4016C276.38 51.1165 276.117 52.6522 275.591 54.0086C275.078 55.365 274.345 56.5228 273.393 57.482C272.454 58.4315 271.339 59.1582 270.049 59.662C268.759 60.1561 267.344 60.4032 265.804 60.4032ZM265.804 59.3859C267.582 59.3859 269.154 58.9886 270.519 58.1942C271.897 57.39 272.967 56.2419 273.731 54.7498C274.508 53.248 274.896 51.4653 274.896 49.4016C274.896 47.3282 274.501 45.5552 273.712 44.0825C272.936 42.6001 271.865 41.4714 270.5 40.6963C269.135 39.9115 267.57 39.5191 265.804 39.5191C264.051 39.5191 262.485 39.9115 261.108 40.6963C259.743 41.4714 258.666 42.6001 257.877 44.0825C257.1 45.5552 256.712 47.3282 256.712 49.4016C256.712 51.475 257.1 53.2577 257.877 54.7498C258.666 56.2419 259.743 57.39 261.108 58.1942C262.485 58.9886 264.051 59.3859 265.804 59.3859Z" fill="#264158"/>
</svg>
