<svg width="90" height="80" viewBox="0 0 90 80" fill="none" xmlns="http://www.w3.org/2000/svg">
<path d="M53.6146 42.2855C60.5294 35.3922 69.113 26.8313 70.2934 19.2145C71.1209 13.8293 70.3137 9.38837 67.8888 6.01637C65.44 2.61267 61.7204 0.670451 56.507 0.0785525C56.0059 0.0252656 55.5484 0 55.0943 0C51.4048 0 47.6846 1.45414 44.8257 3.9136C41.9706 1.45414 38.2471 0 34.5648 0C34.1066 0 33.6527 0.0250359 33.1481 0.0785525C27.9345 0.670221 24.2117 2.61244 21.7662 6.01637C19.3414 9.38837 18.5338 13.8293 19.3612 19.2145C20.5418 26.835 29.1251 35.3924 36.0404 42.2855C36.0404 42.2855 39.4912 45.9565 40.5268 46.8975C41.308 47.6068 42.9966 49.0325 44.829 49.0325C46.6588 49.0325 48.3507 47.6068 49.1277 46.8975C50.1635 45.9565 53.6146 42.2855 53.6146 42.2855Z" fill="#264158"/>
<path d="M32.6213 54.1475C32.2451 53.8411 29.2611 51.4496 20.9843 50.8646C20.53 50.8256 20.069 50.4834 19.6652 50.1985C19.5668 50.129 19.4677 50.0582 19.3689 49.9868C18.9518 49.6845 18.5418 49.3597 18.2255 48.9617C17.5937 48.1596 16.8774 47.4857 16.2753 46.5948C12.2529 40.6499 8.30768 39.4594 7.71835 39.2208C6.93503 38.822 6.4001 38.7053 6.22562 38.1373C6.15475 37.8737 5.472 30.97 5.3504 29.8113C5.01141 26.4822 4.67481 24.0158 2.87517 23.3461C2.41133 23.1711 2.08145 23.2285 1.73877 23.6167C1.32782 24.0733 1.08615 26.49 0.968023 28.0188C0.968023 28.0188 0.290043 36.9512 0.369805 40.0481C0.449567 43.1449 5.50646 55.5162 8.216 58.4031C10.9255 61.29 23.4658 68.843 23.4658 68.843C23.9168 69.2417 26.4226 71.2843 26.4226 73.9647V76.9855C26.4226 76.9855 26.0652 79.7808 28.9555 79.7808C31.8458 79.7808 35.8554 79.793 38.7093 79.793C41.5632 79.793 41.0064 77.0618 41.0085 76.1049C41.0103 75.4239 41.0116 74.8812 41.0122 74.6232C41.0124 74.5187 41.0124 74.4599 41.0124 74.4599C41.0465 73.4725 41.2047 72.4924 41.3157 71.5121C41.6317 70.3897 41.3796 68.2688 41.2313 67.4456C39.536 59.4372 33.3002 54.7075 32.6213 54.1475Z" fill="#F79781"/>
<path d="M88.6831 28.0186C88.5649 26.4899 88.3233 24.0731 87.9123 23.6165C87.5696 23.2286 87.2397 23.1711 86.7759 23.3459C84.9761 24.0157 84.6397 26.482 84.3007 29.8111C84.1791 30.9699 83.4963 37.8735 83.4255 38.1372C83.251 38.7052 82.7161 38.8216 81.9327 39.2206C81.3434 39.4592 77.3982 40.6499 73.3758 46.5946C72.7737 47.4856 72.0574 48.1595 71.4256 48.9615C71.1093 49.3593 70.6992 49.6841 70.2822 49.9866C70.1834 50.058 70.0843 50.1288 69.9859 50.1984C69.5819 50.4832 69.1211 50.8254 68.6668 50.8645C60.39 51.4495 57.406 53.841 57.0298 54.1474C56.3509 54.7073 50.1151 59.4368 48.4198 67.4452C48.2715 68.2684 48.0194 70.3893 48.3354 71.5117C48.4464 72.492 48.6046 73.4721 48.6387 74.4595C48.6387 74.4595 48.6387 74.5183 48.6389 74.6228C48.6395 74.8808 48.6408 75.4235 48.6426 76.1045C48.645 77.0614 48.0879 79.7926 50.9418 79.7926C53.7957 79.7926 57.8053 79.7804 60.6956 79.7804C63.5859 79.7804 63.2285 76.9851 63.2285 76.9851V73.9643C63.2285 71.2839 65.7343 69.2413 66.1853 68.8426C66.1853 68.8426 79.7094 60.5806 81.4351 58.4027C83.1608 56.2248 88.9507 43.068 89.2813 40.0477C89.6118 37.0273 88.6831 28.0186 88.6831 28.0186Z" fill="#F79781"/>
</svg>
