<svg width="30" height="31" viewBox="0 0 30 31" fill="none" xmlns="http://www.w3.org/2000/svg">
<path opacity="0.4" d="M8.87376 30.9987H21.1258C26.4343 30.9987 29.9998 27.5847 29.9998 22.5012V9.49616C29.9998 4.41266 26.4343 0.998657 21.1258 0.998657H8.87376C3.56676 0.998657 -0.000244141 4.41416 -0.000244141 9.49766L-0.000244141 22.5012C-0.000244141 27.5847 3.56676 30.9987 8.87376 30.9987" fill="#98C5EB"/>
<path d="M16.2831 22.4176L21.9306 16.7956C22.3551 16.3726 22.3551 15.6241 21.9306 15.1996L16.2831 9.57761C15.8421 9.13961 15.1296 9.14111 14.6916 9.58211C14.2536 10.0231 14.2536 10.7341 14.6946 11.1736L18.4101 14.8741H8.87762C8.25512 14.8741 7.75262 15.3781 7.75262 15.9991C7.75262 16.6201 8.25512 17.1241 8.87762 17.1241H18.4101L14.6946 20.8231C14.4741 21.0436 14.3646 21.3316 14.3646 21.6211C14.3646 21.9076 14.4741 22.1956 14.6916 22.4146C15.1296 22.8541 15.8421 22.8556 16.2831 22.4176" fill="#98C5EB"/>
</svg>
