<svg width="31" height="23" viewBox="0 0 31 23" fill="none" xmlns="http://www.w3.org/2000/svg">
<path d="M25.9673 22.1521C26.1345 22.3719 26.4482 22.4145 26.668 22.2473L30.2491 19.5222C30.4688 19.355 30.5114 19.0413 30.3442 18.8216C30.177 18.6018 29.8633 18.5592 29.6435 18.7264L26.4603 21.1487L24.0381 17.9655C23.8709 17.7457 23.5572 17.7031 23.3374 17.8703C23.1176 18.0376 23.0751 18.3513 23.2423 18.571L25.9673 22.1521ZM0.972549 3.16955C9.27012 -0.309047 15.9289 0.998531 20.2819 4.7781C24.6555 8.57563 26.7973 14.9498 25.8697 21.7821L26.8606 21.9166C27.8248 14.8145 25.6111 8.08097 20.9375 4.02301C16.2433 -0.0528961 9.16326 -1.34857 0.585919 2.24731L0.972549 3.16955Z" fill="#F79781"/>
</svg>
