<svg width="40" height="41" viewBox="0 0 40 41" fill="none" xmlns="http://www.w3.org/2000/svg">
<rect y="0.231445" width="40" height="40" rx="5" fill="#D3DDE6"/>
<path d="M23.7333 21.4213C22.6667 22.4727 22.6667 23.524 21.6 23.524C20.5333 23.524 19.4667 22.4727 18.4 21.4213C17.3333 20.3699 16.2667 19.3186 16.2667 18.2672C16.2667 17.2158 17.3333 17.2158 18.4 16.1645C19.4667 15.1131 16.2667 11.959 15.2 11.959C14.1333 11.959 12 15.1131 12 15.1131C12 17.2158 14.192 21.4791 16.2667 23.524C18.3413 25.5689 22.6667 27.7295 24.8 27.7295C24.8 27.7295 28 25.6268 28 24.5754C28 23.524 24.8 20.3699 23.7333 21.4213Z" fill="white"/>
</svg>
