<svg width="41" height="40" viewBox="0 0 41 40" fill="none" xmlns="http://www.w3.org/2000/svg">
<path d="M0.5 5.09473C0.5 2.3333 2.73858 0.0947266 5.5 0.0947266H35.5C38.2614 0.0947266 40.5 2.3333 40.5 5.09473V34.5215C40.5 37.2829 38.2614 39.5215 35.5 39.5215H5.5C2.73858 39.5215 0.5 37.2829 0.5 34.5215V5.09473Z" fill="#D3DDE6"/>
<path d="M27.2539 9.50391C23.4424 8.78646 19.4843 8.78646 15.6728 9.50391C13.9869 9.86264 11.8613 11.8715 11.4948 13.4499C10.8351 16.535 10.8351 19.6918 11.4948 22.7768C11.9346 24.3552 14.0602 26.3641 15.6728 26.7228C15.7461 26.7228 15.8194 26.7945 15.8194 26.8663V31.3862C15.8194 31.6015 16.1126 31.745 16.2592 31.5297L18.4581 29.3056C18.4581 29.3056 20.2173 27.512 20.5105 27.225C20.5105 27.225 20.5838 27.1533 20.6571 27.1533C22.856 27.225 25.1283 27.0098 27.3272 26.6511C29.0131 26.2923 31.1387 24.2835 31.5052 22.7051C32.1649 19.62 32.1649 16.4632 31.5052 13.3782C31.0654 11.8715 28.9398 9.86264 27.2539 9.50391ZM27.3272 22.992C26.9607 23.7095 26.5209 24.2835 25.788 24.6422C25.5681 24.7139 25.3482 24.7857 25.1283 24.8574C24.8351 24.7857 24.6152 24.7139 24.3953 24.6422C22.0497 23.7095 19.8508 22.4181 18.0916 20.5527C17.1387 19.4765 16.3325 18.2568 15.6728 16.9654C15.3796 16.3197 15.0864 15.7458 14.8665 15.1C14.6466 14.5261 15.0131 13.9521 15.3796 13.5217C15.7461 13.0912 16.1859 12.8042 16.699 12.589C17.0654 12.3737 17.4319 12.5172 17.7251 12.8042C18.3115 13.5217 18.8979 14.2391 19.3377 15.0283C19.6309 15.5305 19.5576 16.1045 19.0445 16.4632C18.8979 16.535 18.8246 16.6067 18.678 16.7502C18.6047 16.8219 18.4581 16.8937 18.3848 17.0372C18.2382 17.2524 18.2382 17.4676 18.3115 17.6829C18.8979 19.333 19.9974 20.6244 21.6832 21.3419C21.9764 21.4854 22.1963 21.5571 22.5628 21.5571C23.0759 21.4854 23.2958 20.9114 23.6623 20.6244C24.0288 20.3375 24.4686 20.3375 24.9084 20.5527C25.2749 20.7679 25.6414 21.0549 26.0811 21.3419C26.4476 21.6289 26.8141 21.8441 27.1806 22.1311C27.4005 22.2746 27.4738 22.6333 27.3272 22.992ZM24.2487 17.6111C24.1021 17.6111 24.1754 17.6111 24.2487 17.6111C23.9555 17.6111 23.8822 17.4676 23.8089 17.2524C23.8089 17.1089 23.8089 16.8937 23.7356 16.7502C23.6623 16.4632 23.5157 16.1762 23.2225 15.961C23.0759 15.8892 22.9293 15.8175 22.7827 15.7458C22.5628 15.674 22.4162 15.674 22.1963 15.674C21.9764 15.6023 21.9031 15.4588 21.9031 15.2435C21.9031 15.1 22.123 14.9566 22.2696 14.9566C23.4424 15.0283 24.322 15.674 24.4686 17.0372C24.4686 17.1089 24.4686 17.2524 24.4686 17.3242C24.4686 17.4676 24.3953 17.6111 24.2487 17.6111ZM23.5157 14.4543C23.1492 14.3108 22.7827 14.1674 22.3429 14.0956C22.1963 14.0956 21.9764 14.0239 21.8298 14.0239C21.6099 14.0239 21.4634 13.8804 21.5366 13.6651C21.5366 13.4499 21.6832 13.3064 21.9031 13.3782C22.6361 13.4499 23.2958 13.5934 23.9555 13.8804C25.2749 14.5261 26.0079 15.6023 26.2277 17.0372C26.2277 17.1089 26.2277 17.1807 26.2277 17.2524C26.2277 17.3959 26.2277 17.5394 26.2277 17.7546C26.2277 17.8264 26.2277 17.8981 26.2277 17.9699C26.1545 18.2568 25.6414 18.3286 25.5681 17.9699C25.5681 17.8981 25.4948 17.7546 25.4948 17.6829C25.4948 17.0372 25.3482 16.3915 25.055 15.8175C24.6152 15.1718 24.1021 14.7413 23.5157 14.4543ZM27.4738 18.7591C27.2539 18.7591 27.1073 18.5438 27.1073 18.3286C27.1073 17.8981 27.034 17.4676 26.9607 17.0372C26.6675 14.7413 24.7618 12.8759 22.4895 12.5172C22.123 12.4455 21.7565 12.4455 21.4634 12.3737C21.2435 12.3737 20.9503 12.3737 20.877 12.0867C20.8037 11.8715 21.0236 11.6563 21.2435 11.6563C21.3168 11.6563 21.3901 11.6563 21.3901 11.6563C21.5367 11.6563 24.3953 11.728 21.3901 11.6563C24.4686 11.728 27.034 13.7369 27.5471 16.7502C27.6204 17.2524 27.6937 17.7546 27.6937 18.3286C27.8403 18.5438 27.6937 18.7591 27.4738 18.7591Z" fill="white"/>
</svg>
