<svg width="29" height="29" viewBox="0 0 29 29" fill="none" xmlns="http://www.w3.org/2000/svg">
<path d="M11.7328 13.6421C11.5053 13.4146 11.1967 13.2867 10.8749 13.2867C10.5531 13.2867 10.2445 13.4146 10.017 13.6421C9.78945 13.8696 9.66162 14.1782 9.66162 14.5C9.66162 14.8218 9.78945 15.1304 10.017 15.3579L13.642 18.9829C13.7549 19.0949 13.8888 19.1835 14.036 19.2437C14.1832 19.3038 14.3409 19.3343 14.4999 19.3333C14.6653 19.3281 14.8279 19.2889 14.9776 19.2183C15.1272 19.1476 15.2608 19.0469 15.3699 18.9225L23.8282 9.25584C24.0235 9.01337 24.1177 8.70486 24.0911 8.39464C24.0645 8.08443 23.9192 7.79646 23.6854 7.59077C23.4517 7.38509 23.1476 7.27756 22.8365 7.29061C22.5254 7.30367 22.2314 7.4363 22.0157 7.66085L14.4999 16.3608L11.7328 13.6421Z" fill="#A4C0DA"/>
<path d="M25.3751 13.2915C25.0546 13.2915 24.7472 13.4188 24.5206 13.6454C24.294 13.872 24.1667 14.1794 24.1667 14.4998C24.1667 17.0636 23.1483 19.5224 21.3354 21.3352C19.5226 23.1481 17.0638 24.1665 14.5001 24.1665C12.591 24.1656 10.7249 23.5995 9.13719 22.5395C7.54944 21.4795 6.31109 19.9732 5.57831 18.2104C4.84552 16.4475 4.65111 14.5072 5.01958 12.634C5.38806 10.7609 6.30292 9.03876 7.64881 7.68484C8.54382 6.77784 9.61075 6.05847 10.7872 5.56882C11.9636 5.07917 13.2258 4.82907 14.5001 4.83317C15.2727 4.83801 16.0426 4.92715 16.7959 5.099C16.9535 5.14777 17.1195 5.16372 17.2836 5.14589C17.4476 5.12805 17.6063 5.0768 17.7497 4.9953C17.8932 4.9138 18.0185 4.80377 18.1178 4.67201C18.2172 4.54024 18.2885 4.38952 18.3273 4.22914C18.3662 4.06876 18.3718 3.90213 18.3438 3.73951C18.3157 3.57689 18.2547 3.42173 18.1644 3.28359C18.0742 3.14546 17.9566 3.02728 17.8189 2.93634C17.6812 2.8454 17.5263 2.78363 17.3638 2.75484C16.4251 2.53401 15.4644 2.4205 14.5001 2.4165C12.1128 2.42891 9.78271 3.14817 7.80383 4.48354C5.82496 5.81891 4.28598 7.71053 3.38112 9.91969C2.47626 12.1288 2.24606 14.5565 2.71958 16.8964C3.19309 19.2363 4.3491 21.3834 6.04173 23.0669C8.28523 25.3114 11.3266 26.5758 14.5001 26.5832C17.7048 26.5832 20.7782 25.3101 23.0443 23.044C25.3103 20.778 26.5834 17.7045 26.5834 14.4998C26.5834 14.1794 26.4561 13.872 26.2295 13.6454C26.0029 13.4188 25.6955 13.2915 25.3751 13.2915Z" fill="#A4C0DA"/>
</svg>
