<svg width="221" height="72" viewBox="0 0 221 72" fill="none" xmlns="http://www.w3.org/2000/svg">
<path fill-rule="evenodd" clip-rule="evenodd" d="M84.2211 0.847276C84.2211 0.924998 84.7145 1.54581 85.3178 2.2266C89.4248 6.86137 90.6105 10.1024 90.1751 15.5055C89.5983 22.6646 90.5008 26.9499 93.0707 29.2534C95.2527 31.2092 96.2203 32.6 96.3816 34.0127L96.509 35.1287L95.8228 33.5694C93.2983 27.8341 84.3517 24.0415 68.6888 22.067C61.4632 21.1562 48.4357 20.266 49.923 20.7846C52.6641 21.7403 59.7253 25.6674 66.8217 30.183C69.4379 31.8475 71.691 33.253 71.8287 33.3063C71.9664 33.3595 72.7873 33.8753 73.6528 34.4524C80.4473 38.984 85.5431 40.9269 86.9183 39.5099C88.6169 37.7602 86.5628 34.8852 81.1162 31.3886C78.2026 29.5183 78.2206 29.341 81.1758 30.8033C95.7657 38.0238 87.2633 53.1875 63.1388 62.9718C60.771 63.9323 61.2141 63.9733 64.2363 63.0738C70.1306 61.319 75.5089 58.8878 80.2102 55.8526C83.8886 53.4775 83.7456 53.3511 82.7552 58.1036C81.6973 63.1798 80.4312 72.7705 80.9272 71.9506C81.0469 71.7527 81.338 70.6193 81.5743 69.4318C82.609 64.2331 84.9606 56.134 86.0321 54.0794C86.9471 52.3249 87.0753 52.2579 89.2065 52.4206C94.182 52.8003 99.7515 50.1093 101.126 46.6612C101.706 45.2056 101.452 45.0022 100.761 46.3693C98.8563 50.1398 93.7061 52.3287 89.0756 51.3358C87.5429 51.0072 87.5898 50.9232 88.1378 49.9013C92.6749 41.4409 102.137 36.5418 106.436 40.4279C107.994 41.8358 109.733 42.2493 108.672 40.9173C108.313 40.4656 107.944 39.6262 107.851 39.0517C107.474 36.6898 106.175 35.5895 102.969 34.914L102.316 34.7763L102.433 32.3928C102.879 23.3171 99.8171 14.4887 94.1044 8.38175C91.1512 5.22465 84.2211 -0.0585203 84.2211 0.847276ZM81.4672 10.8969C76.0631 11.9301 71.4712 14.32 67.4476 18.1934L65.3196 20.2418L66.1708 20.3267C66.9288 20.4023 67.2022 20.243 68.6743 18.8663C73.6094 14.2507 80.0517 11.7401 86.9604 11.7401C88.9527 11.7401 89.1239 11.6648 88.8257 10.9202C88.6322 10.4371 83.9492 10.4224 81.4672 10.8969ZM100.229 14.831C100.502 15.3436 101.208 16.1012 101.799 16.5142C109.165 21.6679 113.745 32.1819 112.032 40.0098C109.278 52.5931 99.3535 60.916 87.1016 60.916C85.0742 60.916 85.0279 60.9292 84.907 61.5347C84.5362 63.3938 93.6588 62.0555 98.9917 59.4686C117.11 50.6793 118.652 25.3479 101.707 14.8538C99.7903 13.6664 99.6073 13.6637 100.229 14.831ZM60.8591 28.4719C59.6955 30.3948 59.2746 39.0502 60.1972 42.0852C62.0042 48.0303 64.0038 51.3692 67.928 54.994C70.6353 57.4948 70.9109 57.6507 71.662 57.1079L72.23 56.6972L71.0897 55.9126C63.0529 50.3823 58.7006 37.7748 61.9774 29.5168C62.2726 28.7725 61.2534 27.8201 60.8591 28.4719ZM76.3628 59.6307C75.4645 60.0978 75.6375 60.2242 78.2882 61.0369C80.7114 61.7798 80.7161 61.7796 80.7159 60.976C80.7154 60.3794 80.577 60.2772 79.2661 59.9083C78.469 59.6837 77.6524 59.4451 77.4513 59.3774C77.2505 59.31 76.7606 59.424 76.3628 59.6307Z" fill="#264158"/>
<path d="M102.143 39.4684C99.0135 39.7083 97.8574 43.0112 100.617 43.8839C101.879 44.2828 103.793 43.6877 105.329 42.4187L106.533 41.4229L105.862 40.752C104.732 39.6679 102.912 39.4445 102.143 39.4684Z" fill="#264158"/>
<path d="M8.37404 42.659C6.75321 42.659 5.31248 42.339 4.05183 41.699C2.80119 41.059 1.81068 40.1511 1.08031 38.9754C0.35994 37.7928 -0.000244141 36.3945 -0.000244141 34.7805C-0.000244141 33.1596 0.369945 31.7648 1.11032 30.5961C1.86071 29.4204 2.88123 28.516 4.17189 27.883C5.47256 27.2429 6.94831 26.9229 8.59916 26.9229C9.89982 26.9229 10.9954 27.0864 11.8858 27.4134C12.7863 27.7404 13.5117 28.1612 14.062 28.676C14.6122 29.1908 15.0074 29.7439 15.2476 30.3352C15.4977 30.9196 15.6228 31.4796 15.6228 32.0152C15.6228 32.0361 15.6228 32.057 15.6228 32.0779C15.6228 32.0987 15.6228 32.1196 15.6228 32.1405H14.4972C14.4972 32.1196 14.4972 32.0987 14.4972 32.0779C14.4972 32.057 14.4972 32.0361 14.4972 32.0152C14.4972 31.5283 14.3871 31.0344 14.167 30.5335C13.9569 30.0256 13.6167 29.5561 13.1465 29.1247C12.6862 28.6865 12.0809 28.3352 11.3306 28.0708C10.5802 27.8064 9.66971 27.6743 8.59916 27.6743C7.16843 27.6743 5.89277 27.9595 4.7722 28.5299C3.66163 29.1004 2.78118 29.9178 2.13085 30.9822C1.49052 32.0466 1.17036 33.3127 1.17036 34.7805C1.17036 35.8867 1.34544 36.8815 1.69562 37.765C2.05581 38.6415 2.55606 39.3928 3.19639 40.0189C3.84673 40.6381 4.60711 41.1111 5.47756 41.4381C6.35801 41.7651 7.32851 41.9286 8.38905 41.9286C9.70973 41.9286 10.7953 41.7859 11.6457 41.5007C12.4962 41.2085 13.1465 40.8607 13.5967 40.4572C14.057 40.0468 14.3571 39.6607 14.4972 39.2989V36.1997H8.38905V35.5006H15.5777L15.1075 42.4712L14.5722 40.5303C14.4922 40.6972 14.3071 40.9024 14.0169 41.1459C13.7268 41.3825 13.3266 41.619 12.8163 41.8555C12.3061 42.0851 11.6807 42.2764 10.9404 42.4294C10.21 42.5825 9.35454 42.659 8.37404 42.659Z" fill="#264158"/>
<path d="M28.176 42.659C26.9453 42.659 25.8148 42.4816 24.7842 42.1268C23.7537 41.7651 22.8583 41.2433 22.0979 40.5616C21.3475 39.8728 20.7622 39.0415 20.342 38.0676C19.9318 37.0936 19.7267 35.991 19.7267 34.7597C19.7267 33.5283 19.9368 32.4292 20.357 31.4622C20.7772 30.4883 21.3675 29.6674 22.1279 28.9995C22.8883 28.3247 23.7787 27.8099 24.7992 27.4551C25.8298 27.1003 26.9553 26.9229 28.176 26.9229C29.3966 26.9229 30.5222 27.1003 31.5527 27.4551C32.5832 27.8099 33.4787 28.3247 34.2391 28.9995C34.9995 29.6674 35.5848 30.4883 35.995 31.4622C36.4152 32.4292 36.6253 33.5283 36.6253 34.7597C36.6253 35.991 36.4152 37.0936 35.995 38.0676C35.5848 39.0415 34.9995 39.8728 34.2391 40.5616C33.4887 41.2433 32.5982 41.7651 31.5677 42.1268C30.5372 42.4816 29.4066 42.659 28.176 42.659ZM28.176 41.9286C29.5967 41.9286 30.8523 41.6433 31.9429 41.0729C33.0435 40.4955 33.8989 39.6711 34.5092 38.5998C35.1295 37.5215 35.4397 36.2414 35.4397 34.7597C35.4397 33.2709 35.1245 31.9979 34.4942 30.9404C33.8739 29.8761 33.0185 29.0656 31.9279 28.5091C30.8373 27.9456 29.5867 27.6638 28.176 27.6638C26.7753 27.6638 25.5246 27.9456 24.4241 28.5091C23.3335 29.0656 22.4731 29.8761 21.8427 30.9404C21.2224 31.9979 20.9123 33.2709 20.9123 34.7597C20.9123 36.2484 21.2224 37.5284 21.8427 38.5998C22.4731 39.6711 23.3335 40.4955 24.4241 41.0729C25.5246 41.6433 26.7753 41.9286 28.176 41.9286Z" fill="#264158"/>
<path d="M40.733 42.4712V27.0795H47.5614C49.4024 27.0795 50.8231 27.3925 51.8236 28.0186C52.8241 28.6378 53.3244 29.6326 53.3244 31.003C53.3244 31.8379 53.0943 32.5474 52.634 33.1318C52.1838 33.7162 51.6485 34.1683 51.0282 34.4884C50.4079 34.8014 49.8526 34.9823 49.3624 35.031C49.8526 35.0588 50.3529 35.1597 50.8631 35.3336C51.3834 35.5006 51.8186 35.7614 52.1688 36.1162C52.519 36.4641 52.6941 36.9336 52.6941 37.525C52.6941 38.1511 52.6941 38.8015 52.6941 39.4763C52.6941 40.1442 52.6941 40.7911 52.6941 41.4172C52.6941 41.6885 52.7291 41.9216 52.7991 42.1164C52.8692 42.3042 52.9292 42.4225 52.9792 42.4712H51.7936C51.7536 42.4155 51.6986 42.2973 51.6285 42.1164C51.5685 41.9286 51.5385 41.6955 51.5385 41.4172C51.5385 40.812 51.5385 40.1824 51.5385 39.5285C51.5385 38.8746 51.5385 38.245 51.5385 37.6397C51.5385 36.8606 51.1733 36.2936 50.4429 35.9388C49.7125 35.584 48.737 35.4066 47.5164 35.4066H41.4833L41.8585 35.0832V42.4712H40.733ZM41.8585 35.0414L41.4833 34.6971H47.5164C48.3468 34.6971 49.1122 34.5475 49.8126 34.2484C50.513 33.9492 51.0732 33.5283 51.4935 32.9857C51.9237 32.4431 52.1388 31.7961 52.1388 31.0448C52.1388 29.89 51.7236 29.0621 50.8932 28.5612C50.0727 28.0534 48.8721 27.7995 47.2913 27.7995H41.4683L41.8585 27.4447V35.0414Z" fill="#264158"/>
<path d="M126.177 42.659C124.694 42.659 123.453 42.4955 122.451 42.1686C121.45 41.8416 120.694 41.3477 120.183 40.6868C119.672 40.0189 119.417 39.1876 119.417 38.1928C119.417 38.0328 119.417 37.9041 119.417 37.8067C119.417 37.7024 119.417 37.5702 119.417 37.4102H120.589C120.589 37.5702 120.589 37.6989 120.589 37.7963C120.589 37.8937 120.589 38.0224 120.589 38.1824C120.589 39.4763 121.064 40.4259 122.016 41.0311C122.967 41.6294 124.334 41.9286 126.116 41.9286C127.989 41.9286 129.391 41.6642 130.322 41.1355C131.264 40.5998 131.734 39.8241 131.734 38.8085C131.734 38.0989 131.499 37.518 131.028 37.0658C130.568 36.6067 129.917 36.2206 129.076 35.9075C128.244 35.5945 127.258 35.3058 126.116 35.0414C124.815 34.7423 123.673 34.4014 122.692 34.0188C121.71 33.6292 120.949 33.1596 120.408 32.61C119.868 32.0535 119.597 31.3613 119.597 30.5335C119.597 29.7474 119.853 29.0865 120.363 28.5508C120.884 28.0151 121.62 27.6117 122.571 27.3403C123.533 27.0621 124.674 26.9229 125.996 26.9229C127.408 26.9229 128.615 27.076 129.616 27.3821C130.618 27.6812 131.384 28.1438 131.915 28.7699C132.455 29.3891 132.726 30.1787 132.726 31.1387C132.726 31.3196 132.726 31.4691 132.726 31.5874C132.726 31.6987 132.726 31.8448 132.726 32.0257H131.554C131.554 31.8518 131.554 31.7092 131.554 31.5978C131.554 31.4796 131.554 31.3335 131.554 31.1596C131.554 29.9213 131.068 29.0273 130.097 28.4778C129.136 27.9282 127.779 27.6534 126.026 27.6534C124.354 27.6534 123.057 27.8934 122.136 28.3734C121.215 28.8534 120.754 29.5734 120.754 30.5335C120.754 31.25 121.009 31.8448 121.52 32.3179C122.041 32.784 122.752 33.177 123.653 33.497C124.554 33.8101 125.581 34.1023 126.732 34.3736C128.034 34.6727 129.141 35.0066 130.052 35.3753C130.973 35.744 131.674 36.1962 132.155 36.7319C132.646 37.2676 132.891 37.9493 132.891 38.7772C132.891 39.5911 132.631 40.2868 132.11 40.8642C131.599 41.4416 130.843 41.8868 129.842 42.1999C128.85 42.506 127.629 42.659 126.177 42.659Z" fill="#264158"/>
<path d="M150.483 27.0795V42.4712H149.327V34.7805L149.852 35.1666H137.64L138.166 34.7805V42.4712H137.009V27.0795H138.166V34.8536L137.64 34.4466H149.852L149.327 34.8536V27.0795H150.483Z" fill="#264158"/>
<path d="M156.035 27.7995L156.561 27.3612V34.6971L156.2 34.3944H165.529V35.104H156.2L156.561 34.8014V42.1894L156.035 41.7512H166.595V42.4712H155.404V27.0795H166.595V27.7995H156.035Z" fill="#264158"/>
<path d="M172.637 42.4712H171.511V27.0795H173.389L184.699 41.9912L184.579 42.0433V27.0795H185.706V42.4712H183.783L172.517 27.5699L172.637 27.5386V42.4712Z" fill="#264158"/>
<path d="M194.334 34.4571V33.8205L203.197 42.4712H201.86L193.598 34.4779L194.214 34.5301L191.616 36.8258L191.796 36.2623V42.4712H190.639V27.0795H191.796V35.8553L191.556 35.7197L201.214 27.0795H202.521L194.334 34.4571Z" fill="#264158"/>
<path d="M212.543 42.659C211.311 42.659 210.18 42.4816 209.148 42.1268C208.117 41.7651 207.221 41.2433 206.46 40.5616C205.709 39.8728 205.123 39.0415 204.702 38.0676C204.292 37.0936 204.086 35.991 204.086 34.7597C204.086 33.5283 204.297 32.4292 204.717 31.4622C205.138 30.4883 205.729 29.6674 206.49 28.9995C207.251 28.3247 208.142 27.8099 209.163 27.4551C210.195 27.1003 211.321 26.9229 212.543 26.9229C213.765 26.9229 214.891 27.1003 215.923 27.4551C216.954 27.8099 217.851 28.3247 218.612 28.9995C219.373 29.6674 219.959 30.4883 220.369 31.4622C220.79 32.4292 221 33.5283 221 34.7597C221 35.991 220.79 37.0936 220.369 38.0676C219.959 39.0415 219.373 39.8728 218.612 40.5616C217.861 41.2433 216.969 41.7651 215.938 42.1268C214.906 42.4816 213.775 42.659 212.543 42.659ZM212.543 41.9286C213.965 41.9286 215.222 41.6433 216.313 41.0729C217.415 40.4955 218.271 39.6711 218.882 38.5998C219.503 37.5215 219.813 36.2414 219.813 34.7597C219.813 33.2709 219.498 31.9979 218.867 30.9404C218.246 29.8761 217.39 29.0656 216.298 28.5091C215.207 27.9456 213.955 27.6638 212.543 27.6638C211.141 27.6638 209.889 27.9456 208.788 28.5091C207.696 29.0656 206.835 29.8761 206.204 30.9404C205.583 31.9979 205.273 33.2709 205.273 34.7597C205.273 36.2484 205.583 37.5284 206.204 38.5998C206.835 39.6711 207.696 40.4955 208.788 41.0729C209.889 41.6433 211.141 41.9286 212.543 41.9286Z" fill="#264158"/>
</svg>
