<!-- Generated by IcoMoon.io -->
<svg version="1.1" xmlns="http://www.w3.org/2000/svg" width="32" height="32" viewBox="0 0 32 32">
<title>scroll-top</title>
<path fill="#98c5eb" d="M32 16c0 8.837-7.163 16-16 16s-16-7.163-16-16c0-8.837 7.163-16 16-16s16 7.163 16 16z"></path>
<path fill="#000" opacity="0.2" d="M32 16c0 8.837-7.163 16-16 16s-16-7.163-16-16c0-8.837 7.163-16 16-16s16 7.163 16 16z"></path>
<path fill="#fff" d="M16.574 7.702c-0.215-0.215-0.565-0.215-0.78 0l-3.511 3.511c-0.215 0.215-0.215 0.565 0 0.78s0.565 0.215 0.78 0l3.121-3.121 3.121 3.121c0.215 0.215 0.565 0.215 0.78 0s0.215-0.565 0-0.78l-3.511-3.511zM16.736 23.908v-15.816h-1.103v15.816h1.103z"></path>
</svg>
