<svg width="50" height="51" viewBox="0 0 50 51" fill="none" xmlns="http://www.w3.org/2000/svg">
<g clip-path="url(#clip0_125_602)">
<path d="M25 50.0605C38.8071 50.0605 50 38.8677 50 25.0605C50 11.2534 38.8071 0.0605469 25 0.0605469C11.1929 0.0605469 0 11.2534 0 25.0605C0 38.8677 11.1929 50.0605 25 50.0605Z" fill="#D3DDE6"/>
<path d="M21.2109 38.0293L9.6875 26.5059C9.53125 26.3496 9.53125 26.1152 9.6875 25.959L13.0078 22.6387C13.1641 22.4824 13.3984 22.4824 13.5547 22.6387L21.4844 30.5684L36.4062 15.6465C36.5625 15.4902 36.7969 15.4902 36.9531 15.6465L40.2734 18.9668C40.4297 19.123 40.4297 19.3574 40.2734 19.5137L21.7578 38.0293C21.6016 38.1855 21.3672 38.1855 21.2109 38.0293Z" fill="white"/>
</g>
<defs>
<clipPath id="clip0_125_602">
<rect width="50" height="50" fill="white" transform="translate(0 0.0605469)"/>
</clipPath>
</defs>
</svg>
