<svg width="38" height="41" viewBox="0 0 38 41" fill="none" xmlns="http://www.w3.org/2000/svg">
<path d="M32.3583 31.36L26.4663 25.0044C27.6837 23.0252 28.3963 20.6554 28.3963 18.1079C28.3963 11.2052 23.1901 5.58936 16.791 5.58936C10.3918 5.58936 5.1857 11.2052 5.1857 18.1079C5.1857 25.0106 10.3918 30.6264 16.791 30.6264C19.1527 30.6264 21.3496 29.8578 23.1843 28.5446L29.0764 34.9003C29.9816 35.878 31.4531 35.878 32.3583 34.9003C33.2647 33.9226 33.2647 32.3377 32.3583 31.36ZM8.66729 18.1079C8.66729 13.2757 12.3113 9.34492 16.791 9.34492C21.2706 9.34492 24.9147 13.2757 24.9147 18.1079C24.9147 22.9401 21.2706 26.8709 16.791 26.8709C12.3113 26.8709 8.66729 22.9401 8.66729 18.1079Z" fill="#F79781"/>
<path d="M22.5936 18.1079C22.5936 18.7989 22.0737 19.3598 21.4331 19.3598H17.9515V23.1153C17.9515 23.8063 17.4316 24.3672 16.791 24.3672C16.1504 24.3672 15.6305 23.8063 15.6305 23.1153V19.3598H12.1489C11.5083 19.3598 10.9883 18.7989 10.9883 18.1079C10.9883 17.4169 11.5083 16.8561 12.1489 16.8561H15.6305V13.1005C15.6305 12.4095 16.1504 11.8486 16.791 11.8486C17.4316 11.8486 17.9515 12.4095 17.9515 13.1005V16.8561H21.4331C22.0737 16.8561 22.5936 17.4169 22.5936 18.1079Z" fill="#F79781"/>
</svg>
